<?xml version="1.0" encoding="utf-8"?>
<!-- Generator: Adobe Illustrator 27.0.0, SVG Export Plug-In . SVG Version: 6.00 Build 0)  -->
<svg version="1.1" id="レイヤー_1" xmlns="http://www.w3.org/2000/svg" xmlns:xlink="http://www.w3.org/1999/xlink" x="0px"
	 y="0px" width="1500px" height="400px" viewBox="0 0 1500 400" enable-background="new 0 0 1500 400" xml:space="preserve">
<path fill="none" stroke="#7F7F7F" stroke-width="0.75" stroke-miterlimit="10" d="M92.368,71.207v9.958h427.357l1.245-4.149
	l-58.087-26.969l-9.543,21.16H92.368z M19.344,355.006l26.139,29.044l51.864-9.958h529.84l1.245-4.149l-61.822-30.703
	l-10.373,24.895H79.506l-58.502-12.447L19.344,355.006z M79.091,305.217l25.31,27.384l46.47-9.128h428.187l1.245-4.149
	l-58.502-30.703l-9.543,24.895H135.933L80.75,301.897L79.091,305.217z M34.695,205.638l25.724,28.214l50.619-9.543h505.36
	l1.245-4.149l-60.992-30.703l-10.373,24.895H94.027l-57.672-12.032L34.695,205.638z M56.271,159.583l25.724,28.214l48.13-9.543
	h464.699l1.245-4.149l-59.747-30.703l-9.958,24.895H114.358L57.93,156.264L56.271,159.583z M301.482,276.173v93.77h36.512v-76.758
	l25.31-6.224v-3.319L301.482,276.173z M599.388,307.291l14.107-31.118c-108.291-41.906-202.061-56.843-239.818-20.331l1.66,3.319
	C421.391,229.703,504.373,258.332,599.388,307.291z M437.573,299.408l12.032-26.969c-72.609-26.969-150.612-47.3-198.742-14.107
	l3.734,2.489C299.823,240.905,351.686,257.502,437.573,299.408z M279.492,294.014l11.617-24.895
	c-68.875-29.044-120.324-32.778-181.316,24.065l4.564,4.564C172.445,250.448,209.787,255.427,279.492,294.014z M6.896,286.96
	l19.086,31.533c59.332-20.745,100.823-49.789,126.548-96.259l-3.319-2.075C111.039,264.97,60.835,277.832,6.896,286.96z
	 M91.123,122.241v9.958h444.368v-9.958H91.123z M91.123,42.579v9.958c88.376-14.522,268.862-30.288,346.865-30.288
	c68.875,0,100.823,11.203,100.823,42.736c0,25.724-5.809,44.81-26.554,67.215h41.491c13.277-19.501,24.895-43.98,24.895-71.779
	c0-43.151-26.969-50.204-119.909-50.204C350.857,10.216,179.499,28.057,91.123,42.579z M111.039,18.929H30.546l-0.415,4.149
	l43.98,12.032v97.089h36.927V18.929z M301.482,25.152v192.933h36.512V25.152H301.482z"/>
<path fill="none" stroke="#7F7F7F" stroke-width="0.75" stroke-miterlimit="10" d="M90.471,73.104h3.793v-3.793h-3.793V73.104z
	 M451.443,73.104h3.793v-3.793h-3.793V73.104z M460.986,51.943h3.793v-3.793h-3.793V51.943z M519.074,78.912h3.793V75.12h-3.793
	V78.912z M517.829,83.062h3.793v-3.793h-3.793V83.062z M90.471,83.062h3.793v-3.793h-3.793V83.062z M17.447,356.902h3.793v-3.793
	h-3.793V356.902z M19.107,353.583H22.9v-3.793h-3.793V353.583z M77.609,366.03h3.793v-3.793h-3.793V366.03z M554.341,366.03h3.793
	v-3.793h-3.793V366.03z M564.714,341.135h3.793v-3.793h-3.793V341.135z M626.535,371.839h3.793v-3.793h-3.793V371.839z
	 M625.29,375.988h3.793v-3.793h-3.793V375.988z M95.45,375.988h3.793v-3.793H95.45V375.988z M43.587,385.946h3.793v-3.793h-3.793
	V385.946z M77.194,307.113h3.793v-3.793h-3.793V307.113z M78.854,303.794h3.793v-3.793h-3.793V303.794z M134.037,315.411h3.793
	v-3.793h-3.793V315.411z M510.36,315.411h3.793v-3.793h-3.793V315.411z M519.903,290.516h3.793v-3.793h-3.793V290.516z
	 M578.406,321.22h3.793v-3.793h-3.793V321.22z M577.161,325.369h3.793v-3.793h-3.793V325.369z M148.974,325.369h3.793v-3.793h-3.793
	V325.369z M102.504,334.497h3.793v-3.793h-3.793V334.497z M32.799,207.535h3.793v-3.793h-3.793V207.535z M34.459,204.215h3.793
	v-3.793h-3.793V204.215z M92.131,216.248h3.793v-3.793h-3.793V216.248z M544.383,216.248h3.793v-3.793h-3.793V216.248z
	 M554.756,191.353h3.793v-3.793h-3.793V191.353z M615.748,222.056h3.793v-3.793h-3.793V222.056z M614.503,226.205h3.793v-3.793
	h-3.793V226.205z M109.142,226.205h3.793v-3.793h-3.793V226.205z M58.523,235.748h3.793v-3.793h-3.793V235.748z M54.374,161.479
	h3.793v-3.793h-3.793V161.479z M56.034,158.16h3.793v-3.793h-3.793V158.16z M112.462,170.193h3.793V166.4h-3.793V170.193z
	 M524.467,170.193h3.793V166.4h-3.793V170.193z M534.425,145.298h3.793v-3.793h-3.793V145.298z M594.172,176.001h3.793v-3.793
	h-3.793V176.001z M592.927,180.15h3.793v-3.793h-3.793V180.15z M128.228,180.15h3.793v-3.793h-3.793V180.15z M80.099,189.693h3.793
	v-3.793h-3.793V189.693z M299.586,278.069h3.793v-3.793h-3.793V278.069z M361.408,285.538h3.793v-3.793h-3.793V285.538z
	 M361.408,288.857h3.793v-3.793h-3.793V288.857z M336.098,295.08h3.793v-3.793h-3.793V295.08z M336.098,371.839h3.793v-3.793h-3.793
	V371.839z M299.586,371.839h3.793v-3.793h-3.793V371.839z M597.492,309.187h3.793v-3.793h-3.793V309.187z M599.388,307.291
	l-95.014-48.959 M503.714,256.269l1.319,4.125 M502.311,258.991l4.125-1.319 M375.336,259.162l46.055-29.459 M423.506,230.168
	l-4.23-0.93 M421.856,227.588l-0.929,4.23 M374.761,261.781l3.195-2.044l-2.044-3.195l-3.195,2.044L374.761,261.781z
	 M371.78,257.739h3.793v-3.793h-3.793V257.739z M373.677,255.842l37.757-36.512 M413.599,219.366l-4.33-0.073 M411.47,217.165
	l-0.073,4.33 M613.495,276.173l-108.291-41.906 M504.328,232.286l1.751,3.961 M503.222,235.142l3.962-1.751 M615.948,275.089
	l-3.537-1.369l-1.369,3.537l3.537,1.369L615.948,275.089z M435.677,301.304h3.793v-3.793h-3.793V301.304z M437.573,299.408
	l-85.886-41.906 M350.982,255.454l1.409,4.095 M349.639,258.207l4.095-1.409 M254.598,260.821l45.225-19.916 M301.841,241.69
	l-4.037-1.568 M300.607,238.887l-1.569,4.037 M253.626,263.321l3.471-1.529l-1.529-3.471l-3.471,1.529L253.626,263.321z
	 M248.967,260.228h3.793v-3.793h-3.793V260.228z M250.863,258.332l48.13-33.193 M301.123,225.53l-4.26-0.782 M299.384,223.009
	l-0.782,4.26 M449.605,272.439l-72.609-26.969 M376.094,243.501l1.805,3.937 M375.027,246.372l3.937-1.805 M452.043,271.321
	l-3.555-1.321l-1.321,3.555l3.555,1.321L452.043,271.321z M277.596,295.91h3.793v-3.793h-3.793V295.91z M279.492,294.014
	l-69.705-38.587 M209.189,253.346l1.196,4.162 M207.706,256.025l4.162-1.196 M114.358,297.748l58.087-47.3 M174.6,250.669
	l-4.308-0.441 M172.666,248.294l-0.441,4.308 M114.085,300.416l2.941-2.395l-2.395-2.941l-2.941,2.395L114.085,300.416z
	 M107.898,295.08h3.793v-3.793h-3.793V295.08z M109.794,293.184l60.992-56.843 M172.95,236.418l-4.328-0.152 M170.862,234.177
	l-0.152,4.328 M291.11,269.119l-68.875-29.044 M221.419,238.07l1.632,4.012 M220.229,240.892l4.012-1.632 M293.594,268.109
	l-3.495-1.474l-1.474,3.495l3.495,1.474L293.594,268.109z M5,288.857h3.793v-3.793H5V288.857z M6.896,286.96l53.938-9.128
	 M62.6,279.087l-3.53-2.509 M62.089,276.067l-2.509,3.53 M149.21,220.16l-38.172,44.81 M108.88,265.143l4.317-0.345
	 M111.211,267.129l-0.345-4.317 M148.997,217.487l-2.459,2.887l2.887,2.459l2.459-2.887L148.997,217.487z M150.633,224.131h3.793
	v-3.793h-3.793V224.131z M152.53,222.235l-25.724,46.47 M124.724,269.302l4.162-1.196 M127.403,270.786l-1.196-4.162
	 M25.982,318.494l59.332-20.745 M87.265,298.688l-3.902-1.88 M86.254,295.797l-1.88,3.902 M24.818,320.91l3.58-1.252l-1.252-3.58
	l-3.58,1.252L24.818,320.91z M89.227,124.138h3.793v-3.793h-3.793V124.138z M533.595,124.138h3.793v-3.793h-3.793V124.138z
	 M533.595,134.095h3.793v-3.793h-3.793V134.095z M89.227,134.095h3.793v-3.793h-3.793V134.095z M89.227,44.475h3.793v-3.793h-3.793
	V44.475z M91.123,42.579l88.376-14.522 M181.258,29.319l-3.518-2.525 M180.762,26.298l-2.525,3.518 M458.733,10.216H350.857
	 M349.325,8.684l3.062,3.062 M349.325,11.747l3.062-3.062 M459.005,10.487c0.15-0.15,0.15-0.393,0-0.543
	c-0.15-0.15-0.393-0.15-0.543,0c-0.15,0.15-0.15,0.393,0,0.543S458.855,10.637,459.005,10.487 M460.399,11.881
	c0.92-0.92,0.92-2.412,0-3.331c-0.92-0.92-2.411-0.92-3.332,0c-0.92,0.92-0.92,2.412,0,3.331
	C457.988,12.801,459.479,12.801,460.399,11.881 M458.733,10.216h92.94 M553.204,11.747l-3.062-3.062 M553.204,8.684l-3.062,3.062
	 M578.642,60.42V17.269 M580.174,15.738l-3.062,3.062 M577.111,15.738l3.062,3.062 M578.914,60.691c0.15-0.15,0.15-0.393,0-0.543
	c-0.15-0.15-0.393-0.15-0.543,0c-0.15,0.15-0.15,0.393,0,0.543C578.521,60.841,578.764,60.841,578.914,60.691 M580.308,62.085
	c0.92-0.92,0.92-2.412,0-3.331c-0.92-0.92-2.411-0.92-3.332,0c-0.92,0.92-0.92,2.412,0,3.331
	C577.897,63.005,579.388,63.005,580.308,62.085 M578.642,60.42v27.799 M577.111,89.75l3.062-3.062 M580.174,89.75l-3.062-3.062
	 M553.748,132.199l13.277-19.501 M569.152,112.294l-4.255,0.808 M566.621,110.571l0.808,4.255 M554.248,134.834l2.134-3.135
	l-3.135-2.134l-2.134,3.135L554.248,134.834z M510.36,134.095h3.793v-3.793h-3.793V134.095z M512.257,132.199l20.745-22.405
	 M535.166,109.711l-4.327,0.166 M532.919,107.63l0.167,4.328 M538.811,64.984v25.724 M537.28,92.239l3.062-3.062 M540.342,92.239
	l-3.062-3.062 M539.082,65.255c0.15-0.15,0.15-0.393,0-0.543c-0.15-0.15-0.393-0.15-0.543,0c-0.15,0.15-0.15,0.393,0,0.543
	C538.689,65.405,538.932,65.405,539.082,65.255 M540.477,66.649c0.92-0.92,0.92-2.412,0-3.331s-2.411-0.92-3.332,0
	c-0.92,0.92-0.92,2.412,0,3.331C538.065,67.569,539.557,67.569,540.477,66.649 M538.811,64.984V33.451 M540.342,31.919l-3.062,3.062
	 M537.28,31.919l3.062,3.062 M437.988,22.248h68.875 M508.394,23.779l-3.062-3.062 M508.394,20.717l-3.062,3.062 M438.259,22.519
	c0.15-0.15,0.15-0.393,0-0.543c-0.15-0.15-0.393-0.15-0.543,0c-0.15,0.15-0.15,0.393,0,0.543
	C437.866,22.669,438.109,22.669,438.259,22.519 M439.654,23.914c0.92-0.92,0.92-2.412,0-3.331c-0.92-0.92-2.411-0.92-3.332,0
	c-0.92,0.92-0.92,2.412,0,3.331C437.242,24.834,438.734,24.834,439.654,23.914 M437.988,22.248h-78.003 M358.453,20.717l3.062,3.062
	 M358.453,23.779l3.062-3.062 M91.123,52.536l88.376-14.522 M181.258,39.277l-3.518-2.525 M180.762,36.255l-2.525,3.518
	 M89.559,54.715l3.742-0.615l-0.615-3.743l-3.743,0.615L89.559,54.715z M109.142,20.825h3.793v-3.793h-3.793V20.825z
	 M109.142,134.095h3.793v-3.793h-3.793V134.095z M72.215,134.095h3.793v-3.793h-3.793V134.095z M72.215,37.007h3.793v-3.793h-3.793
	V37.007z M28.235,24.974h3.793v-3.793h-3.793V24.974z M28.65,20.825h3.793v-3.793H28.65V20.825z M299.586,27.049h3.793v-3.793
	h-3.793V27.049z M336.098,27.049h3.793v-3.793h-3.793V27.049z M336.098,219.982h3.793v-3.793h-3.793V219.982z M299.586,219.982
	h3.793v-3.793h-3.793V219.982z"/>
<path fill="none" stroke="#7F7F7F" stroke-width="0.75" stroke-miterlimit="10" d="M767.011,282.396l12.862-14.522
	c-18.671-21.575-34.023-44.395-44.81-59.747l-2.489-25.724c-3.319-55.598-0.83-118.249,32.778-118.249
	c13.277,0,24.48,14.107,30.703,34.852C722.201,183.648,658.72,266.215,658.72,317.664c0,40.246,24.48,63.481,97.089,63.481
	c33.608,0,58.087-4.149,77.588-10.373l5.809-36.097c-36.927,9.128-64.311,14.107-94.185,14.107c-52.694,0-68.46-7.053-68.46-31.118
	c0-44.395,92.525-155.176,154.761-209.529c-21.16-38.172-41.491-57.258-63.896-57.258c-48.959,0-51.864,70.535-41.076,148.538
	l-1.66,7.468c-22.82-29.459-47.3-63.896-65.556-102.068l2.904-23.235l-63.896,34.023l2.075,4.149l27.384-7.053
	C656.645,164.562,711.413,240.491,767.011,282.396z"/>
<path fill="none" stroke="#7F7F7F" stroke-width="0.75" stroke-miterlimit="10" d="M782.548,268.068l-2.482-2.868l-2.868,2.482
	l2.482,2.868L782.548,268.068z M765.115,284.293h3.793V280.5h-3.793V284.293z M767.011,282.396l-55.598-41.906 M711.112,238.346
	l0.602,4.289 M709.269,240.792l4.289-0.602 M627.601,112.698l29.044,51.864 M656.057,166.646l1.176-4.168 M658.729,165.15
	l-4.168-1.176 M625.02,111.97l1.853,3.309l3.309-1.853l-1.853-3.309L625.02,111.97z M598.321,121.648h3.793v-3.793h-3.793V121.648z
	 M596.247,117.499h3.793v-3.793h-3.793V117.499z M660.143,83.476h3.793v-3.793h-3.793V83.476z M657.238,106.711h3.793v-3.793h-3.793
	V106.711z M659.135,104.815l18.256,38.172 M676.67,145.029l1.441-4.084 M679.433,143.708l-4.084-1.441 M724.69,206.883
	l-22.82-29.459 M702.143,175.276l-0.546,4.296 M699.722,177.151l4.296,0.546 M727.351,207.221l-2.323-2.998l-2.998,2.323
	l2.323,2.998L727.351,207.221z M724.454,201.311h3.793v-3.793h-3.793V201.311z M726.35,199.415l-10.788-78.003 M716.869,119.685
	l-2.614,3.453 M713.836,120.104l3.453,2.614 M767.426,50.877h-48.959 M716.935,49.346l3.062,3.062 M716.935,52.408l3.062-3.062
	 M767.697,51.148c0.15-0.15,0.15-0.393,0-0.543c-0.15-0.15-0.393-0.15-0.543,0c-0.15,0.15-0.15,0.393,0,0.543
	C767.305,51.298,767.548,51.298,767.697,51.148 M769.092,52.543c0.92-0.92,0.92-2.412,0-3.331c-0.92-0.92-2.412-0.92-3.332,0
	c-0.92,0.92-0.92,2.412,0,3.331C766.68,53.462,768.172,53.462,769.092,52.543 M767.426,50.877h22.405 M791.362,52.408l-3.062-3.062
	 M791.362,49.346l-3.062,3.062 M831.322,108.134l-21.16-38.172 M810.759,67.881l-1.194,4.163 M808.08,69.366l4.163,1.194
	 M833.9,108.873l-1.839-3.317l-3.317,1.839l1.839,3.317L833.9,108.873z M831.322,108.134l-62.236,54.353 M766.925,162.341
	l4.321,0.292 M768.94,164.648l0.292-4.321 M676.561,317.664v-44.395 M678.092,271.737l-3.062,3.062 M675.03,271.737l3.062,3.062
	 M676.832,317.935c0.15-0.15,0.15-0.393,0-0.543c-0.15-0.15-0.393-0.15-0.543,0c-0.15,0.15-0.15,0.393,0,0.543
	S676.682,318.085,676.832,317.935 M678.227,319.33c0.92-0.92,0.92-2.412,0-3.331c-0.92-0.92-2.411-0.92-3.331,0
	c-0.92,0.92-0.92,2.411,0,3.331C675.815,320.25,677.307,320.25,678.227,319.33 M676.561,317.664v24.065 M675.03,343.26l3.062-3.062
	 M678.092,343.26l-3.062-3.062 M745.021,348.782h-52.694 M690.796,347.251l3.062,3.062 M690.796,350.313l3.062-3.062
	 M745.292,349.053c0.15-0.15,0.15-0.393,0-0.543s-0.393-0.15-0.543,0s-0.15,0.393,0,0.543
	C744.9,349.203,745.142,349.203,745.292,349.053 M746.687,350.448c0.92-0.92,0.92-2.411,0-3.331c-0.92-0.92-2.412-0.92-3.331,0
	c-0.92,0.92-0.92,2.412,0,3.331C744.275,351.368,745.767,351.368,746.687,350.448 M745.021,348.782h29.874 M776.426,350.313
	l-3.062-3.062 M776.426,347.251l-3.062,3.062 M839.206,334.675l-36.927,9.128 M800.425,342.684l3.708,2.238 M801.159,345.657
	l2.238-3.708 M840.591,332.379l-3.682,0.91l0.91,3.682l3.682-0.91L840.591,332.379z M831.5,372.669h3.793v-3.793H831.5V372.669z
	 M833.397,370.772l-19.501,6.224 M811.972,376.003l3.849,1.986 M812.903,378.92l1.986-3.849 M755.809,381.145h33.608
	 M790.948,382.676l-3.062-3.062 M790.948,379.614l-3.062,3.062 M756.08,381.416c0.15-0.15,0.15-0.393,0-0.543
	c-0.15-0.15-0.393-0.15-0.543,0c-0.15,0.15-0.15,0.393,0,0.543C755.687,381.566,755.93,381.566,756.08,381.416 M757.474,382.811
	c0.92-0.92,0.92-2.411,0-3.331s-2.412-0.92-3.331,0c-0.92,0.92-0.92,2.412,0,3.331C755.063,383.731,756.554,383.731,757.474,382.811
	 M755.809,381.145h-72.609 M681.668,379.614l3.062,3.062 M681.668,382.676l3.062-3.062 M658.72,317.664v40.246 M657.188,359.441
	l3.062-3.062 M660.251,359.441l-3.062-3.062 M658.991,317.935c0.15-0.15,0.15-0.393,0-0.543c-0.15-0.15-0.393-0.15-0.543,0
	c-0.15,0.15-0.15,0.393,0,0.543S658.841,318.085,658.991,317.935 M660.385,319.33c0.92-0.92,0.92-2.412,0-3.331
	c-0.92-0.92-2.411-0.92-3.331,0c-0.92,0.92-0.92,2.411,0,3.331C657.974,320.25,659.466,320.25,660.385,319.33 M658.72,317.664
	v-51.449 M660.251,264.684l-3.062,3.062 M657.188,264.684l3.062,3.062 M796.055,99.006l-73.854,84.642 M720.04,183.795l4.321-0.294
	 M722.348,185.808l-0.294-4.321 M795.873,96.331l-2.494,2.858l2.858,2.494l2.494-2.858L795.873,96.331z M796.055,99.006
	l-6.224-20.745 M790.858,76.354l-2.053,3.813 M787.925,77.234l3.813,2.053 M765.352,64.154h13.277 M780.16,65.685l-3.062-3.062
	 M780.16,62.623l-3.062,3.062 M765.623,64.425c0.15-0.15,0.15-0.393,0-0.543c-0.15-0.15-0.393-0.15-0.543,0
	c-0.15,0.15-0.15,0.393,0,0.543C765.23,64.575,765.473,64.575,765.623,64.425 M767.017,65.82c0.92-0.92,0.92-2.412,0-3.331
	s-2.412-0.92-3.331,0c-0.92,0.92-0.92,2.412,0,3.331C764.606,66.74,766.097,66.74,767.017,65.82 M765.352,64.154h-33.608
	 M730.213,62.623l3.062,3.062 M730.213,65.685l3.062-3.062 M732.574,182.403l-3.319-55.598 M730.692,125.186l-2.874,3.24
	 M727.635,125.368l3.24,2.874 M734.58,184.183l-0.226-3.786l-3.786,0.226l0.226,3.786L734.58,184.183z M733.167,210.024h3.793
	v-3.793h-3.793V210.024z M735.063,208.128l10.788,15.352 M745.478,225.612l0.745-4.266 M747.984,223.852l-4.266-0.745
	 M779.873,267.875l-18.671-21.575 M761.358,244.139l-0.312,4.32 M759.043,246.143l4.32,0.312"/>
<path fill="none" stroke="#7F7F7F" stroke-width="0.75" stroke-miterlimit="10" d="M1221.752,90.708v3.734h30.703l-29.873,238.573
	c-3.319,26.139,5.394,44.81,26.554,44.81c26.139,0,52.279-31.118,85.056-124.473l-2.904-6.639
	c-33.608,84.642-58.087,102.068-70.12,102.068c-8.298,0-10.373-7.883-8.713-21.575l29.044-232.764l63.481-12.862l-0.415-4.149
	h-60.992l7.883-62.236h-3.734C1277.35,65.399,1254.53,85.314,1221.752,90.708z M1098.939,202.319l18.671-6.224
	c-29.044-6.639-36.512-26.139-36.512-47.3c0-36.097,21.16-63.066,47.3-63.066c17.426,0,37.342,11.617,32.778,47.715l-12.862,102.898
	c-9.543,76.758-60.992,116.59-93.77,116.59c-16.181,0-26.554-9.543-26.554-31.118c0-41.906,40.246-99.993,89.621-125.718h-14.107
	c-56.013,30.288-107.462,82.982-107.462,137.75c0,32.778,19.086,44.395,43.565,44.395c46.885,0,82.982-40.661,102.898-96.259
	l-6.224,60.162c-2.49,24.065,5.394,34.852,21.16,34.852s46.47-10.373,77.588-112.441l-1.66-12.032
	c-29.459,86.716-53.109,95.429-61.407,95.429c-6.224,0-7.883-3.734-6.639-13.692l24.895-197.912
	c5.394-42.736-13.692-63.066-45.225-63.066c-41.491,0-87.961,34.852-87.961,81.322
	C1057.033,179.914,1070.725,202.319,1098.939,202.319z M1438.335,299.408l34.852-144.389c14.522-60.162-2.49-81.737-22.82-81.737
	c-28.214,0-52.693,41.906-88.376,122.813l-2.904,21.575c39.002-86.716,61.822-119.494,78.833-119.494
	c9.958,0,16.596,10.788,7.883,46.885l-35.267,146.463c-13.692,57.672-5.809,85.471,24.48,85.471
	c35.267,0,53.938-38.587,58.087-119.079h-4.979c-9.128,77.173-27.799,94.599-43.151,94.599
	C1434.186,352.516,1427.548,343.803,1438.335,299.408z M1316.767,25.567l0.415,3.734l59.332,9.543l-17.841-17.426l-41.906,336.077
	l-29.459,13.692l0.83,2.904h34.023h12.862h57.673l0.83-2.904l-47.3-14.937l43.566-349.354L1316.767,25.567z M887.75,30.546v322.385
	l-36.512,17.426l0.83,3.734h45.64h8.713h85.471l0.83-3.734l-73.024-19.501V30.546l55.598-4.564
	c64.726-5.394,80.907,19.916,85.057,55.598c8.713,77.173-49.789,114.515-156.421,165.134l2.904,9.543
	c84.642-38.172,126.962-61.822,159.74-96.674c-3.319-16.596,10.373-48.13,26.969-60.162c0.83-6.639,0.415-13.692-0.415-21.16
	c-4.979-41.906-30.703-70.12-120.324-62.651L842.94,26.397l-0.83,4.149l66.386,18.671L887.75,30.546z"/>
<path fill="none" stroke="#7F7F7F" stroke-width="0.75" stroke-miterlimit="10" d="M1219.856,92.604h3.793v-3.793h-3.793V92.604z
	 M1221.752,90.708l32.778-5.394 M1256.29,86.577l-3.519-2.525 M1255.793,83.555l-2.525,3.519 M1287.723,15.195l-10.373,50.204
	 M1275.541,66.588l3.619-2.379 M1278.54,67.208l-2.379-3.619 M1286.25,12.954l-0.768,3.714l3.714,0.767l0.768-3.714L1286.25,12.954z
	 M1289.561,17.091h3.793v-3.793h-3.793V17.091z M1281.678,79.327h3.793v-3.793h-3.793V79.327z M1342.67,79.327h3.793v-3.793h-3.793
	V79.327z M1343.085,83.476h3.793v-3.793h-3.793V83.476z M1279.603,96.339h3.793v-3.793h-3.793V96.339z M1252.727,327.478
	c0.15-0.15,0.15-0.393,0-0.543c-0.15-0.15-0.393-0.15-0.543,0c-0.15,0.15-0.15,0.393,0,0.543
	C1252.334,327.628,1252.577,327.628,1252.727,327.478 M1254.121,328.872c0.92-0.92,0.92-2.412,0-3.332
	c-0.92-0.92-2.412-0.92-3.331,0c-0.92,0.92-0.92,2.412,0,3.332C1251.71,329.792,1253.201,329.792,1254.121,328.872
	 M1252.456,327.207l-1.66,13.692 M1249.092,342.235l3.409-2.672 M1252.132,342.603l-2.672-3.409 M1261.169,348.782h-8.298
	 M1251.339,347.251l3.062,3.062 M1251.339,350.313l3.062-3.062 M1261.44,349.053c0.15-0.15,0.15-0.393,0-0.543s-0.393-0.15-0.543,0
	s-0.15,0.393,0,0.543C1261.047,349.203,1261.29,349.203,1261.44,349.053 M1262.835,350.448c0.92-0.92,0.92-2.411,0-3.331
	c-0.92-0.92-2.411-0.92-3.332,0c-0.92,0.92-0.92,2.412,0,3.331C1260.423,351.368,1261.915,351.368,1262.835,350.448
	 M1261.169,348.782h12.032 M1274.732,350.313l-3.062-3.062 M1274.732,347.251l-3.062,3.062 M1331.289,246.714l-33.608,84.642
	 M1295.693,332.214l3.977-1.716 M1298.539,333.344l-1.716-3.976 M1330.226,244.252l-1.4,3.525l3.525,1.4l1.4-3.525L1330.226,244.252
	z M1332.297,255.249h3.793v-3.793h-3.793V255.249z M1334.193,253.353l-32.778,93.355 M1299.463,347.645l3.904-1.875
	 M1302.353,348.66l-1.875-3.904 M1249.136,377.826h26.139 M1276.807,379.357l-3.062-3.062 M1276.807,376.295l-3.062,3.062
	 M1249.408,378.097c0.15-0.15,0.15-0.393,0-0.543c-0.15-0.15-0.393-0.15-0.543,0c-0.15,0.15-0.15,0.393,0,0.543
	C1249.015,378.247,1249.258,378.247,1249.408,378.097 M1250.802,379.491c0.92-0.92,0.92-2.412,0-3.331
	c-0.92-0.92-2.411-0.92-3.331,0c-0.92,0.92-0.92,2.411,0,3.331C1248.391,380.411,1249.882,380.411,1250.802,379.491
	 M1249.136,377.826h-21.16 M1226.445,376.295l3.062,3.062 M1226.445,379.357l3.062-3.062 M1222.582,333.015l-3.319,26.139
	 M1217.551,360.481l3.424-2.652 M1220.589,360.867l-2.652-3.424 M1222.854,333.287c0.15-0.15,0.15-0.393,0-0.543
	c-0.15-0.15-0.393-0.15-0.543,0c-0.15,0.15-0.15,0.393,0,0.543C1222.461,333.437,1222.704,333.437,1222.854,333.287
	 M1224.248,334.681c0.92-0.92,0.92-2.412,0-3.331c-0.92-0.92-2.411-0.92-3.331,0c-0.92,0.92-0.92,2.412,0,3.331
	C1221.836,335.601,1223.328,335.601,1224.248,334.681 M1250.559,96.339h3.793v-3.793h-3.793V96.339z M1219.856,96.339h3.793v-3.793
	h-3.793V96.339z M1097.043,204.215h3.793v-3.793h-3.793V204.215z M1098.939,202.319h-28.214 M1069.194,200.788l3.062,3.062
	 M1069.194,203.85l3.062-3.062 M1057.033,154.604v25.309 M1055.502,181.445l3.062-3.062 M1058.564,181.445l-3.062-3.062
	 M1057.304,154.876c0.15-0.15,0.15-0.393,0-0.543c-0.15-0.15-0.393-0.15-0.543,0c-0.15,0.15-0.15,0.393,0,0.543
	C1056.912,155.025,1057.155,155.025,1057.304,154.876 M1058.699,156.27c0.92-0.92,0.92-2.411,0-3.331c-0.92-0.92-2.411-0.92-3.332,0
	c-0.92,0.92-0.92,2.412,0,3.331C1056.287,157.19,1057.779,157.19,1058.699,156.27 M1057.033,154.604v-46.47 M1058.564,106.603
	l-3.062,3.062 M1055.502,106.603l3.062,3.062 M1144.994,73.282h-41.491 M1101.972,71.751l3.062,3.062 M1101.972,74.813l3.062-3.062
	 M1145.265,73.553c0.15-0.15,0.15-0.393,0-0.543c-0.15-0.15-0.393-0.15-0.543,0c-0.15,0.15-0.15,0.393,0,0.543
	C1144.873,73.703,1145.116,73.703,1145.265,73.553 M1146.66,74.948c0.92-0.92,0.92-2.412,0-3.331c-0.92-0.92-2.411-0.92-3.331,0
	c-0.92,0.92-0.92,2.412,0,3.331C1144.248,75.868,1145.74,75.868,1146.66,74.948 M1144.994,73.282h31.533 M1178.058,74.813
	l-3.062-3.062 M1178.058,71.751l-3.062,3.062 M1190.219,136.348l5.394-42.736 M1197.324,92.285l-3.422,2.655 M1194.286,91.902
	l2.655,3.422 M1190.49,136.619c0.15-0.15,0.15-0.393,0-0.543c-0.15-0.15-0.393-0.15-0.542,0c-0.15,0.15-0.15,0.393,0,0.543
	C1190.098,136.769,1190.341,136.769,1190.49,136.619 M1191.885,138.014c0.92-0.92,0.92-2.411,0-3.331c-0.92-0.92-2.411-0.92-3.332,0
	c-0.92,0.92-0.92,2.412,0,3.331C1189.474,138.934,1190.965,138.934,1191.885,138.014 M1165.596,334.531
	c0.15-0.15,0.15-0.393,0-0.543c-0.15-0.15-0.393-0.15-0.542,0c-0.15,0.15-0.15,0.393,0,0.543
	C1165.203,334.681,1165.446,334.681,1165.596,334.531 M1166.99,335.926c0.92-0.92,0.92-2.412,0-3.332c-0.92-0.92-2.411-0.92-3.331,0
	c-0.92,0.92-0.92,2.412,0,3.332C1164.579,336.846,1166.07,336.846,1166.99,335.926 M1165.325,334.26l-1.245,9.958 M1162.371,345.548
	l3.419-2.659 M1165.409,345.927l-2.659-3.419 M1171.963,347.952h-6.224 M1164.208,346.421l3.062,3.062 M1164.208,349.483
	l3.062-3.062 M1172.234,348.224c0.15-0.15,0.15-0.393,0-0.543c-0.15-0.15-0.393-0.15-0.543,0c-0.15,0.15-0.15,0.393,0,0.543
	C1171.842,348.373,1172.085,348.373,1172.234,348.224 M1173.629,349.618c0.92-0.92,0.92-2.412,0-3.331
	c-0.92-0.92-2.411-0.92-3.331,0c-0.92,0.92-0.92,2.411,0,3.331C1171.217,350.538,1172.709,350.538,1173.629,349.618
	 M1171.963,347.952h8.298 M1181.793,349.483l-3.062-3.062 M1181.793,346.421l-3.062,3.062 M1233.37,252.523l-29.459,86.716
	 M1201.969,340.196l3.885-1.915 M1204.869,341.181l-1.915-3.885 M1232.184,250.117l-1.22,3.591l3.591,1.22l1.22-3.591
	L1232.184,250.117z M1233.133,266.452h3.793v-3.793h-3.793V266.452z M1235.03,264.555l-31.118,102.068 M1202,367.641l3.822-2.036
	 M1204.929,368.534l-2.036-3.822 M1157.441,376.996h15.767 M1174.739,378.527l-3.062-3.062 M1174.739,375.465l-3.062,3.062
	 M1157.713,377.267c0.15-0.15,0.15-0.393,0-0.543c-0.15-0.15-0.393-0.15-0.542,0c-0.15,0.15-0.15,0.393,0,0.543
	C1157.32,377.417,1157.563,377.417,1157.713,377.267 M1159.107,378.662c0.92-0.92,0.92-2.411,0-3.331c-0.92-0.92-2.411-0.92-3.331,0
	c-0.92,0.92-0.92,2.412,0,3.331C1156.696,379.582,1158.187,379.582,1159.107,378.662 M1157.441,376.996h-15.767 M1140.144,375.465
	l3.062,3.062 M1140.144,378.527l3.062-3.062 M1136.281,342.143l-2.49,24.065 M1132.111,367.574l3.361-2.731 M1135.157,367.889
	l-2.731-3.361 M1136.552,342.415c0.15-0.15,0.15-0.393,0-0.543c-0.15-0.15-0.393-0.15-0.543,0c-0.15,0.15-0.15,0.393,0,0.543
	C1136.16,342.565,1136.402,342.565,1136.552,342.415 M1137.947,343.809c0.92-0.92,0.92-2.412,0-3.331c-0.92-0.92-2.411-0.92-3.331,0
	c-0.92,0.92-0.92,2.412,0,3.331C1135.535,344.729,1137.027,344.729,1137.947,343.809 M1140.608,283.878h3.793v-3.793h-3.793V283.878
	z M1142.505,281.982l-19.916,55.598 M1120.631,338.505l3.916-1.85 M1123.514,339.537l-1.85-3.916 M1039.607,378.241h46.885
	 M1088.023,379.772l-3.062-3.062 M1088.023,376.709l-3.062,3.062 M1039.878,378.512c0.15-0.15,0.15-0.393,0-0.543
	c-0.15-0.15-0.393-0.15-0.542,0c-0.15,0.15-0.15,0.393,0,0.543C1039.486,378.662,1039.728,378.662,1039.878,378.512
	 M1041.273,379.906c0.92-0.92,0.92-2.412,0-3.331c-0.92-0.92-2.411-0.92-3.331,0c-0.92,0.92-0.92,2.411,0,3.331
	C1038.861,380.826,1040.353,380.826,1041.273,379.906 M1039.607,378.241h-24.48 M1013.596,376.709l3.062,3.062 M1013.596,379.772
	l3.062-3.062 M996.041,333.845v32.778 M994.51,368.154l3.062-3.062 M997.573,368.154l-3.062-3.062 M996.313,334.117
	c0.15-0.15,0.15-0.393,0-0.543c-0.15-0.15-0.393-0.15-0.543,0c-0.15,0.15-0.15,0.393,0,0.543
	C995.92,334.266,996.163,334.266,996.313,334.117 M997.707,335.511c0.92-0.92,0.92-2.412,0-3.332c-0.92-0.92-2.412-0.92-3.332,0
	c-0.92,0.92-0.92,2.412,0,3.332C995.296,336.431,996.787,336.431,997.707,335.511 M996.041,333.845v-54.768 M997.573,277.546
	l-3.062,3.062 M994.51,277.546l3.062,3.062 M1103.503,196.095l-56.013,30.288 M1045.415,225.765l4.151,1.237 M1046.872,228.459
	l1.237-4.15 M1104.269,193.525l-3.336,1.804l1.804,3.336l3.336-1.804L1104.269,193.525z M1115.714,197.992h3.793v-3.793h-3.793
	V197.992z M1117.61,196.095l-49.374,25.724 M1066.17,221.169l4.131,1.301 M1067.585,223.885l1.301-4.131 M1027.99,321.813v-41.906
	 M1029.521,278.376l-3.062,3.062 M1026.458,278.376l3.062,3.062 M1028.261,322.084c0.15-0.15,0.15-0.393,0-0.543
	c-0.15-0.15-0.393-0.15-0.542,0c-0.15,0.15-0.15,0.393,0,0.543C1027.868,322.234,1028.111,322.234,1028.261,322.084
	 M1029.655,323.479c0.92-0.92,0.92-2.412,0-3.332c-0.92-0.92-2.412-0.92-3.332,0c-0.92,0.92-0.92,2.412,0,3.332
	C1027.244,324.399,1028.735,324.399,1029.655,323.479 M1027.99,321.813v21.575 M1026.458,344.919l3.062-3.062 M1029.521,344.919
	l-3.062-3.062 M1054.544,352.931h-16.181 M1036.831,351.4l3.062,3.062 M1036.831,354.462l3.062-3.062 M1054.815,353.202
	c0.15-0.15,0.15-0.393,0-0.543c-0.15-0.15-0.393-0.15-0.543,0c-0.15,0.15-0.15,0.393,0,0.543S1054.665,353.352,1054.815,353.202
	 M1056.209,354.597c0.92-0.92,0.92-2.412,0-3.331c-0.92-0.92-2.411-0.92-3.332,0c-0.92,0.92-0.92,2.412,0,3.331
	C1053.798,355.517,1055.289,355.517,1056.209,354.597 M1054.544,352.931h32.778 M1088.853,354.462l-3.062-3.062 M1088.853,351.4
	l-3.062,3.062 M1148.313,236.341l-9.543,76.758 M1137.062,314.43l3.417-2.661 M1140.101,314.808l-2.661-3.417 M1148.585,236.613
	c0.15-0.15,0.15-0.393,0-0.543c-0.15-0.15-0.393-0.15-0.543,0c-0.15,0.15-0.15,0.393,0,0.543S1148.435,236.763,1148.585,236.613
	 M1149.979,238.007c0.92-0.92,0.92-2.412,0-3.331c-0.92-0.92-2.411-0.92-3.332,0c-0.92,0.92-0.92,2.411,0,3.331
	C1147.568,238.927,1149.059,238.927,1149.979,238.007 M1161.447,133.715c0.15-0.15,0.15-0.393,0-0.543
	c-0.15-0.15-0.393-0.15-0.543,0s-0.15,0.393,0,0.543C1161.054,133.865,1161.297,133.865,1161.447,133.715 M1162.841,135.11
	c0.92-0.92,0.92-2.412,0-3.331c-0.92-0.92-2.411-0.92-3.331,0c-0.92,0.92-0.92,2.412,0,3.331
	C1160.43,136.03,1161.921,136.03,1162.841,135.11 M1161.176,133.444l4.564-36.097 M1167.451,96.02l-3.422,2.654 M1164.412,95.635
	l2.654,3.422 M1128.398,85.729h17.426 M1147.355,87.26l-3.062-3.062 M1147.355,84.198l-3.062,3.062 M1128.669,86
	c0.15-0.15,0.15-0.393,0-0.543c-0.15-0.15-0.393-0.15-0.542,0c-0.15,0.15-0.15,0.393,0,0.543
	C1128.276,86.15,1128.519,86.15,1128.669,86 M1130.063,87.395c0.92-0.92,0.92-2.412,0-3.331c-0.92-0.92-2.412-0.92-3.332,0
	c-0.92,0.92-0.92,2.412,0,3.331C1127.652,88.315,1129.143,88.315,1130.063,87.395 M1128.398,85.729h-26.139 M1100.727,84.198
	l3.062,3.062 M1100.727,87.26l3.062-3.062 M1081.098,148.796v-36.097 M1082.629,111.167l-3.062,3.062 M1079.567,111.167l3.062,3.062
	 M1081.369,149.067c0.15-0.15,0.15-0.393,0-0.543c-0.15-0.15-0.393-0.15-0.543,0c-0.15,0.15-0.15,0.393,0,0.543
	C1080.977,149.217,1081.219,149.217,1081.369,149.067 M1082.764,150.461c0.92-0.92,0.92-2.411,0-3.331
	c-0.92-0.92-2.411-0.92-3.331,0c-0.92,0.92-0.92,2.412,0,3.331C1080.352,151.381,1081.844,151.381,1082.764,150.461
	 M1081.098,148.796v21.16 M1079.567,171.487l3.062-3.062 M1082.629,171.487l-3.062-3.062 M1117.61,196.095l-29.044-6.639
	 M1087.415,187.623l2.303,3.668 M1086.732,190.608l3.668-2.303 M1119.881,194.669l-3.697-0.845l-0.845,3.697l3.697,0.845
	L1119.881,194.669z M1438.607,299.679c0.15-0.15,0.15-0.393,0-0.543c-0.15-0.15-0.393-0.15-0.543,0c-0.15,0.15-0.15,0.393,0,0.543
	C1438.214,299.829,1438.457,299.829,1438.607,299.679 M1440.001,301.074c0.92-0.92,0.92-2.412,0-3.331
	c-0.92-0.92-2.411-0.92-3.332,0c-0.92,0.92-0.92,2.412,0,3.331C1437.59,301.993,1439.081,301.993,1440.001,301.074
	 M1438.335,299.408l-10.788,44.395 M1425.698,344.93l3.699-2.253 M1428.674,345.653l-2.253-3.699 M1444.974,352.516h-10.788
	 M1432.655,350.985l3.062,3.062 M1432.655,354.047l3.062-3.062 M1445.245,352.788c0.15-0.15,0.15-0.393,0-0.543s-0.393-0.15-0.543,0
	c-0.15,0.15-0.15,0.393,0,0.543C1444.852,352.937,1445.095,352.937,1445.245,352.788 M1446.64,354.182c0.92-0.92,0.92-2.412,0-3.331
	c-0.92-0.92-2.411-0.92-3.332,0c-0.92,0.92-0.92,2.412,0,3.331C1444.228,355.102,1445.72,355.102,1446.64,354.182 M1444.974,352.516
	h15.352 M1461.857,354.047l-3.062-3.062 M1461.857,350.985l-3.062,3.062 M1488.125,257.917l-9.128,77.173 M1477.296,336.431
	l3.401-2.682 M1480.338,336.79l-2.682-3.401 M1486.464,255.811l-0.446,3.766l3.766,0.445l0.446-3.766L1486.464,255.811z
	 M1491.207,259.813H1495v-3.793h-3.793V259.813z M1493.103,257.917l-4.149,80.492 M1487.346,339.86l3.216-2.901 M1490.405,340.017
	l-2.901-3.216 M1435.016,376.996h35.267 M1471.815,378.527l-3.062-3.062 M1471.815,375.465l-3.062,3.062 M1435.287,377.267
	c0.15-0.15,0.15-0.393,0-0.543c-0.15-0.15-0.393-0.15-0.543,0c-0.15,0.15-0.15,0.393,0,0.543
	C1434.895,377.417,1435.138,377.417,1435.287,377.267 M1436.682,378.662c0.92-0.92,0.92-2.411,0-3.331
	c-0.92-0.92-2.411-0.92-3.332,0c-0.92,0.92-0.92,2.412,0,3.331C1434.271,379.582,1435.762,379.582,1436.682,378.662
	 M1435.016,376.996h-30.288 M1403.197,375.465l3.062,3.062 M1403.197,378.527l3.062-3.062 M1410.536,291.524l-13.692,57.672
	 M1395.001,350.333l3.687-2.272 M1397.98,351.04l-2.272-3.687 M1410.808,291.796c0.15-0.15,0.15-0.393,0-0.543
	c-0.15-0.15-0.393-0.15-0.543,0c-0.15,0.15-0.15,0.393,0,0.543C1410.415,291.946,1410.658,291.946,1410.808,291.796
	 M1412.202,293.19c0.92-0.92,0.92-2.412,0-3.331c-0.92-0.92-2.411-0.92-3.332,0c-0.92,0.92-0.92,2.412,0,3.331
	C1409.791,294.11,1411.282,294.11,1412.202,293.19 M1446.075,145.333c0.15-0.15,0.15-0.393,0-0.543c-0.15-0.15-0.393-0.15-0.543,0
	c-0.15,0.15-0.15,0.393,0,0.543C1445.682,145.482,1445.925,145.482,1446.075,145.333 M1447.47,146.727c0.92-0.92,0.92-2.412,0-3.331
	c-0.92-0.92-2.411-0.92-3.332,0c-0.92,0.92-0.92,2.412,0,3.331C1445.058,147.647,1446.55,147.647,1447.47,146.727 M1445.804,145.061
	l8.713-36.097 M1456.365,107.835l-3.695,2.258 M1453.388,107.116l2.258,3.696 M1437.921,98.177h9.958 M1449.41,99.708l-3.062-3.062
	 M1449.41,96.645l-3.062,3.062 M1438.192,98.448c0.15-0.15,0.15-0.393,0-0.543c-0.15-0.15-0.393-0.15-0.543,0
	c-0.15,0.15-0.15,0.393,0,0.543C1437.799,98.598,1438.042,98.598,1438.192,98.448 M1439.586,99.842c0.92-0.92,0.92-2.412,0-3.331
	s-2.411-0.92-3.332,0c-0.92,0.92-0.92,2.412,0,3.331C1437.175,100.762,1438.666,100.762,1439.586,99.842 M1437.921,98.177h-17.011
	 M1419.378,96.645l3.062,3.062 M1419.378,99.708l3.062-3.062 M1359.088,217.671l39.002-86.716 M1400.114,130.186l-4.049,1.537
	 M1397.321,128.93l1.537,4.049 M1360.039,220.178l1.556-3.459l-3.459-1.556l-1.555,3.459L1360.039,220.178z M1360.096,197.992h3.793
	v-3.793h-3.793V197.992z M1361.992,196.095l35.682-80.907 M1399.693,114.405l-4.038,1.566 M1396.891,113.169l1.566,4.038
	 M1450.368,73.282h-28.214 M1420.623,71.751l3.062,3.062 M1420.623,74.813l3.062-3.062 M1450.639,73.553
	c0.15-0.15,0.15-0.393,0-0.543c-0.15-0.15-0.393-0.15-0.543,0c-0.15,0.15-0.15,0.393,0,0.543
	C1450.246,73.703,1450.489,73.703,1450.639,73.553 M1452.034,74.948c0.92-0.92,0.92-2.412,0-3.331c-0.92-0.92-2.411-0.92-3.332,0
	c-0.92,0.92-0.92,2.412,0,3.331C1449.622,75.868,1451.114,75.868,1452.034,74.948 M1450.368,73.282h20.331 M1472.23,74.813
	l-3.062-3.062 M1472.23,71.751l-3.062,3.062 M1473.188,155.019l14.522-60.162 M1489.557,93.728l-3.695,2.258 M1486.581,93.009
	l2.258,3.696 M1473.459,155.29c0.15-0.15,0.15-0.393,0-0.543c-0.15-0.15-0.393-0.15-0.543,0c-0.15,0.15-0.15,0.393,0,0.543
	C1473.066,155.44,1473.309,155.44,1473.459,155.29 M1474.854,156.685c0.92-0.92,0.92-2.411,0-3.331c-0.92-0.92-2.411-0.92-3.332,0
	c-0.92,0.92-0.92,2.412,0,3.331C1472.442,157.605,1473.934,157.605,1474.854,156.685 M1314.871,27.464h3.793v-3.793h-3.793V27.464z
	 M1387.895,8.793h3.793V5h-3.793V8.793z M1344.329,358.147h3.793v-3.793h-3.793V358.147z M1391.629,373.084h3.793v-3.793h-3.793
	V373.084z M1390.799,375.988h3.793v-3.793h-3.793V375.988z M1333.127,375.988h3.793v-3.793h-3.793V375.988z M1320.265,375.988h3.793
	v-3.793h-3.793V375.988z M1286.242,375.988h3.793v-3.793h-3.793V375.988z M1285.412,373.084h3.793v-3.793h-3.793V373.084z
	 M1314.871,359.392h3.793v-3.793h-3.793V359.392z M1356.776,23.315h3.793v-3.793h-3.793V23.315z M1374.618,40.741h3.793v-3.793
	h-3.793V40.741z M1315.286,31.198h3.793v-3.793h-3.793V31.198z M885.854,32.443h3.793V28.65h-3.793V32.443z M906.599,51.113h3.793
	v-3.793h-3.793V51.113z M840.214,32.443h3.793V28.65h-3.793V32.443z M841.043,28.293h3.793v-3.793h-3.793V28.293z M973.078,15.881
	c0.15-0.15,0.15-0.393,0-0.543c-0.15-0.15-0.393-0.15-0.543,0c-0.15,0.15-0.15,0.393,0,0.543S972.928,16.031,973.078,15.881
	 M974.472,17.275c0.92-0.92,0.92-2.412,0-3.332c-0.92-0.92-2.412-0.92-3.331,0c-0.92,0.92-0.92,2.412,0,3.332
	C972.061,18.195,973.552,18.195,974.472,17.275 M972.807,15.609l89.62-7.468 M1064.08,9.54l-3.306-2.798 M1063.826,6.488
	l-2.797,3.306 M1093.13,78.261l-4.979-41.906 M1089.491,34.654l-2.68,3.402 M1086.45,35.015l3.402,2.68 M1093.402,78.532
	c0.15-0.15,0.15-0.393,0-0.543c-0.15-0.15-0.393-0.15-0.543,0c-0.15,0.15-0.15,0.393,0,0.543
	C1093.009,78.682,1093.252,78.682,1093.402,78.532 M1094.796,79.927c0.92-0.92,0.92-2.412,0-3.331c-0.92-0.92-2.412-0.92-3.332,0
	c-0.92,0.92-0.92,2.412,0,3.331C1092.385,80.847,1093.876,80.847,1094.796,79.927 M1093.13,78.261l0.83,7.468 M1092.607,87.42
	l2.706-3.382 M1095.651,87.082l-3.382-2.706 M1093.545,99.421l0.83-6.639 M1096.084,91.453l-3.419,2.659 M1093.046,91.073
	l2.659,3.419 M1095.192,101.538l0.47-3.763l-3.763-0.47l-0.47,3.763L1095.192,101.538z M1093.545,99.421l-16.596,12.032
	 M1074.81,111.113l4.277,0.682 M1076.608,113.592l0.682-4.277 M1066.576,159.583l-3.319-16.596 M1064.458,141.185l-2.402,3.604
	 M1061.455,141.786l3.604,2.402 M1068.807,161.071l-0.744-3.719l-3.719,0.744l0.744,3.719L1068.807,161.071z M1066.576,159.583
	l-32.778,34.852 M1031.634,194.502l4.329-0.133 M1033.865,196.6l-0.133-4.329 M906.836,256.257l84.642-38.172 M993.503,218.852
	l-4.051-1.533 M992.244,216.06l-1.533,4.051 M905.887,258.765l3.457-1.559l-1.559-3.457l-3.457,1.559L905.887,258.765z
	 M902.035,248.611h3.793v-3.793h-3.793V248.611z M903.931,246.714l106.632-50.619 M1012.603,196.822l-4.08-1.453 M1011.29,194.055
	l-1.453,4.08 M1060.353,81.58l8.713,77.173 M1067.716,160.447l2.699-3.387 M1070.759,160.103l-3.387-2.7 M1060.624,81.851
	c0.15-0.15,0.15-0.393,0-0.543c-0.15-0.15-0.393-0.15-0.543,0c-0.15,0.15-0.15,0.393,0,0.543
	C1060.231,82.001,1060.474,82.001,1060.624,81.851 M1062.018,83.246c0.92-0.92,0.92-2.412,0-3.331c-0.92-0.92-2.411-0.92-3.331,0
	c-0.92,0.92-0.92,2.412,0,3.331C1059.607,84.166,1061.098,84.166,1062.018,83.246 M1060.353,81.58l-4.149-35.682 M1057.547,44.2
	l-2.688,3.396 M1054.505,44.554l3.396,2.688 M975.296,25.982l64.726-5.394 M1041.675,21.987l-3.306-2.798 M1041.421,18.935
	l-2.798,3.306 M975.567,26.253c0.15-0.15,0.15-0.393,0-0.543c-0.15-0.15-0.393-0.15-0.543,0c-0.15,0.15-0.15,0.393,0,0.543
	C975.174,26.403,975.417,26.403,975.567,26.253 M976.962,27.648c0.92-0.92,0.92-2.412,0-3.331c-0.92-0.92-2.412-0.92-3.332,0
	c-0.92,0.92-0.92,2.412,0,3.331C974.55,28.568,976.042,28.568,976.962,27.648 M917.802,32.443h3.793V28.65h-3.793V32.443z
	 M917.802,352.753h3.793v-3.793h-3.793V352.753z M990.826,372.254h3.793v-3.793h-3.793V372.254z M989.996,375.988h3.793v-3.793
	h-3.793V375.988z M904.525,375.988h3.793v-3.793h-3.793V375.988z M895.811,375.988h3.793v-3.793h-3.793V375.988z M850.171,375.988
	h3.793v-3.793h-3.793V375.988z M849.342,372.254h3.793v-3.793h-3.793V372.254z M885.854,354.828h3.793v-3.793h-3.793V354.828z"/>
</svg>
